<mxfile host="app.diagrams.net" modified="2022-04-09T09:50:17.582Z" agent="5.0 (Macintosh; Intel Mac OS X 10_15_7) AppleWebKit/537.36 (KHTML, like Gecko) Chrome/99.0.4844.51 Safari/537.36" etag="MKqW6gix38CDJWIp9kqB" version="16.4.6" type="github">
  <diagram id="aaZpISaqm3DU9y9zQW4K" name="第 1 页">
    <mxGraphModel dx="930" dy="682" grid="1" gridSize="10" guides="1" tooltips="1" connect="1" arrows="1" fold="1" page="1" pageScale="1" pageWidth="827" pageHeight="1169" math="0" shadow="0">
      <root>
        <mxCell id="0" />
        <mxCell id="1" parent="0" />
        <mxCell id="fxZ9rcemB220ZJ2YS55v-1" value="xml" style="rounded=0;whiteSpace=wrap;html=1;" vertex="1" parent="1">
          <mxGeometry x="70" y="240" width="90" height="50" as="geometry" />
        </mxCell>
        <mxCell id="fxZ9rcemB220ZJ2YS55v-3" value="注解" style="rounded=0;whiteSpace=wrap;html=1;" vertex="1" parent="1">
          <mxGeometry x="70" y="320" width="90" height="50" as="geometry" />
        </mxCell>
        <mxCell id="fxZ9rcemB220ZJ2YS55v-4" value="Container" style="rounded=0;whiteSpace=wrap;html=1;align=left;verticalAlign=top;" vertex="1" parent="1">
          <mxGeometry x="250" y="230" width="470" height="380" as="geometry" />
        </mxCell>
        <mxCell id="fxZ9rcemB220ZJ2YS55v-5" value="bean" style="rounded=0;whiteSpace=wrap;html=1;" vertex="1" parent="1">
          <mxGeometry x="260" y="320" width="90" height="50" as="geometry" />
        </mxCell>
        <mxCell id="fxZ9rcemB220ZJ2YS55v-6" value="bean" style="rounded=0;whiteSpace=wrap;html=1;" vertex="1" parent="1">
          <mxGeometry x="270" y="330" width="90" height="50" as="geometry" />
        </mxCell>
        <mxCell id="fxZ9rcemB220ZJ2YS55v-7" value="bean" style="rounded=0;whiteSpace=wrap;html=1;" vertex="1" parent="1">
          <mxGeometry x="280" y="340" width="90" height="50" as="geometry" />
        </mxCell>
        <mxCell id="fxZ9rcemB220ZJ2YS55v-8" value="bean" style="rounded=0;whiteSpace=wrap;html=1;" vertex="1" parent="1">
          <mxGeometry x="290" y="350" width="90" height="50" as="geometry" />
        </mxCell>
        <mxCell id="fxZ9rcemB220ZJ2YS55v-9" value="bean" style="rounded=0;whiteSpace=wrap;html=1;" vertex="1" parent="1">
          <mxGeometry x="300" y="360" width="90" height="50" as="geometry" />
        </mxCell>
        <mxCell id="fxZ9rcemB220ZJ2YS55v-10" value="bean" style="rounded=0;whiteSpace=wrap;html=1;" vertex="1" parent="1">
          <mxGeometry x="310" y="370" width="90" height="50" as="geometry" />
        </mxCell>
        <mxCell id="fxZ9rcemB220ZJ2YS55v-11" value="bean" style="rounded=0;whiteSpace=wrap;html=1;" vertex="1" parent="1">
          <mxGeometry x="320" y="380" width="90" height="50" as="geometry" />
        </mxCell>
        <mxCell id="fxZ9rcemB220ZJ2YS55v-12" value="&lt;div&gt;ApplicationContext context = new ClasspathXmlApplicationContext();&lt;/div&gt;&lt;div&gt;A a = context.getBean(A.class);&lt;/div&gt;&lt;div&gt;&lt;br&gt;&lt;/div&gt;&lt;div&gt;class A{&lt;/div&gt;&lt;div&gt;&lt;span&gt;	&lt;/span&gt;private B b;&lt;/div&gt;&lt;div&gt;}&lt;/div&gt;&lt;div&gt;&lt;br&gt;&lt;/div&gt;&lt;div&gt;反射&lt;/div&gt;&lt;div&gt;Constructor ctor = clazz.getConstructor();&lt;/div&gt;&lt;div&gt;Object obj = ctor.newInstance();&lt;/div&gt;" style="rounded=0;whiteSpace=wrap;html=1;align=left;" vertex="1" parent="1">
          <mxGeometry x="250" y="50" width="470" height="150" as="geometry" />
        </mxCell>
      </root>
    </mxGraphModel>
  </diagram>
</mxfile>
